<svg xmlns="http://www.w3.org/2000/svg" xmlns:xlink="http://www.w3.org/1999/xlink" width="200px" height="100px" viewBox="0 0 200 100" version="1.1">
<g id="surface1">
<rect x="0" y="0" width="200" height="100" style="fill:rgb(100%,100%,100%);fill-opacity:1;stroke:none;"></rect>

<path style="fill-rule: nonzero; fill: rgb(28, 113, 216); fill-opacity: 1; opacity: 1; visibility: visible;" d="M 34.96875 54.882812 L 37.746094 54.882812 L 43.753906 47.628906 L 43.902344 47.628906 L 43.902344 56.730469 L 47.9375 56.730469 L 47.9375 42.507812 L 43.84375 42.507812 L 36.613281 51.589844 L 36.492188 51.589844 L 29.320312 42.507812 L 25.285156 42.507812 Z M 25.285156 56.730469 L 29.203125 56.730469 L 29.203125 51.144531 L 25.285156 46.144531 Z M 62.730469 42.507812 L 57.621094 42.507812 L 50.117188 56.730469 L 54.480469 56.730469 L 60.039062 45.453125 L 60.339844 45.453125 L 66.285156 56.730469 L 70.945312 56.730469 Z M 73.128906 56.730469 L 77.164062 56.730469 L 77.164062 51.710938 L 81.855469 51.710938 L 85.769531 56.730469 L 90.3125 56.730469 L 85.441406 51.246094 C 87.980469 50.390625 89.117188 48.523438 89.117188 46.996094 C 89.117188 44.132812 86.484375 42.507812 81.765625 42.507812 L 73.128906 42.507812 L 73.128906 44.90625 L 81.316406 44.90625 C 84.003906 44.90625 85.320312 45.65625 85.320312 47.058594 C 85.320312 48.5625 83.765625 49.4375 81.347656 49.4375 L 73.128906 49.4375 Z M 95.210938 42.507812 L 90.878906 42.507812 L 97.660156 49.335938 L 97.660156 49.375 L 90.191406 56.730469 L 94.734375 56.730469 L 99.785156 51.449219 L 99.902344 51.449219 L 105.042969 56.730469 L 109.433594 56.730469 Z M 103.488281 48.117188 L 108.777344 42.507812 L 104.503906 42.507812 L 101.335938 46.023438 Z M 121.238281 42.304688 L 121.238281 44.90625 C 125.183594 44.90625 128.171875 46.449219 128.171875 49.617188 C 128.171875 52.789062 125.183594 54.355469 121.238281 54.355469 C 117.414062 54.355469 114.457031 52.789062 114.457031 49.617188 C 114.457031 49.617188 110.390625 49.617188 110.390625 49.617188 C 110.390625 54.3125 115.203125 56.933594 121.238281 56.933594 C 127.425781 56.933594 132.207031 54.515625 132.207031 49.617188 C 132.207031 44.945312 127.425781 42.304688 121.238281 42.304688 Z M 145.113281 42.507812 L 140.003906 42.507812 L 132.503906 56.730469 L 136.867188 56.730469 L 142.425781 45.453125 L 142.722656 45.453125 L 148.671875 56.730469 L 153.332031 56.730469 Z M 169.648438 56.730469 L 173.59375 56.730469 L 173.59375 42.507812 L 169.738281 42.507812 L 169.738281 52.300781 L 169.589844 52.300781 L 159.488281 42.507812 L 155.335938 42.507812 Z M 155.515625 56.730469 L 159.429688 56.730469 L 159.429688 49.761719 L 155.515625 45.960938 Z M 155.515625 56.730469 " data-index="1"></path>
</g>
</svg>