<?xml version="1.0" encoding="UTF-8"?>
<svg xmlns="http://www.w3.org/2000/svg" xmlns:xlink="http://www.w3.org/1999/xlink" width="200px" height="100px" viewBox="0 0 200 100" version="1.1">
<g id="surface1">
<rect x="0" y="0" width="200" height="100" style="fill:rgb(100%,100%,100%);fill-opacity:1;stroke:none;"/>
<path style="fill:none;stroke-width:1;stroke-linecap:round;stroke-linejoin:round;stroke:rgb(16.078432%,40.000001%,80.000001%);stroke-opacity:1;stroke-miterlimit:4;" d="M 15.680975 -3.638716 L 19.398679 -3.638716 L 27.440633 -17.918059 L 27.639329 -17.918059 L 27.639329 -0.00159747 L 33.040719 -0.00159747 L 33.040719 -27.998953 L 27.560896 -27.998953 L 17.882316 -10.120938 L 17.720222 -10.120938 L 8.120074 -27.998953 L 2.718683 -27.998953 Z M 2.718683 -0.00159747 L 7.95798 -0.00159747 L 7.95798 -10.997538 L 2.718683 -20.840057 Z M 52.842331 -27.998953 L 45.997781 -27.998953 L 35.958411 -0.00159747 L 41.799024 -0.00159747 L 49.239661 -22.201093 L 49.642282 -22.201093 L 57.600574 -0.00159747 L 63.838579 -0.00159747 Z M 66.761499 -0.00159747 L 72.157661 -0.00159747 L 72.157661 -9.882565 L 78.437496 -9.882565 L 83.682021 -0.00159747 L 89.757932 -0.00159747 L 83.23757 -10.797611 C 86.641544 -12.481605 88.157907 -16.157171 88.157907 -19.163753 C 88.157907 -24.800134 84.638899 -27.998953 78.322462 -27.998953 L 66.761499 -27.998953 L 66.761499 -23.277619 L 77.721145 -23.277619 C 81.318586 -23.277619 83.080705 -21.801241 83.080705 -19.040722 C 83.080705 -16.080276 80.999627 -14.357835 77.757747 -14.357835 L 66.761499 -14.357835 Z M 96.320124 -27.998953 L 90.521342 -27.998953 L 99.598606 -14.557762 L 99.598606 -14.480867 L 89.601067 -0.00159747 L 95.682206 -0.00159747 L 102.437866 -10.397759 L 102.59996 -10.397759 L 109.481111 -0.00159747 L 115.358326 -0.00159747 Z M 107.400033 -16.956876 L 114.479881 -27.998953 L 108.759532 -27.998953 L 104.518943 -21.078431 Z M 131.159876 -28.398805 L 131.159876 -23.277619 C 136.441003 -23.277619 140.441065 -20.240279 140.441065 -13.99643 C 140.441065 -7.760271 136.441003 -4.676794 131.159876 -4.676794 C 126.040843 -4.676794 122.082612 -7.760271 122.082612 -13.99643 C 122.082612 -13.99643 116.639391 -13.99643 116.639391 -13.99643 C 116.639391 -4.761379 123.081321 0.398255 131.159876 0.398255 C 139.442357 0.398255 145.842455 -4.361526 145.842455 -13.99643 C 145.842455 -23.200724 139.442357 -28.398805 131.159876 -28.398805 Z M 163.118538 -27.998953 L 156.279217 -27.998953 L 146.239847 -0.00159747 L 152.08046 -0.00159747 L 159.521097 -22.201093 L 159.918489 -22.201093 L 167.88201 -0.00159747 L 174.120015 -0.00159747 Z M 195.960874 -0.00159747 L 201.242001 -0.00159747 L 201.242001 -27.998953 L 196.081137 -27.998953 L 196.081137 -8.721455 L 195.882441 -8.721455 L 182.360665 -27.998953 L 176.802409 -27.998953 Z M 177.037707 -0.00159747 L 182.282232 -0.00159747 L 182.282232 -13.719609 L 177.037707 -21.201462 Z M 177.037707 -0.00159747 " transform="matrix(0.747059,0,0,0.508,24.375234,57.492999)"/>
<path style=" stroke:none;fill-rule:nonzero;fill:rgb(16.078432%,40.000001%,80.000001%);fill-opacity:1;" d="M 34.96875 54.882812 L 37.746094 54.882812 L 43.753906 47.628906 L 43.902344 47.628906 L 43.902344 56.730469 L 47.9375 56.730469 L 47.9375 42.507812 L 43.84375 42.507812 L 36.613281 51.589844 L 36.492188 51.589844 L 29.320312 42.507812 L 25.285156 42.507812 Z M 25.285156 56.730469 L 29.203125 56.730469 L 29.203125 51.144531 L 25.285156 46.144531 Z M 62.730469 42.507812 L 57.621094 42.507812 L 50.117188 56.730469 L 54.480469 56.730469 L 60.039062 45.453125 L 60.339844 45.453125 L 66.285156 56.730469 L 70.945312 56.730469 Z M 73.128906 56.730469 L 77.164062 56.730469 L 77.164062 51.710938 L 81.855469 51.710938 L 85.769531 56.730469 L 90.3125 56.730469 L 85.441406 51.246094 C 87.980469 50.390625 89.117188 48.523438 89.117188 46.996094 C 89.117188 44.132812 86.484375 42.507812 81.765625 42.507812 L 73.128906 42.507812 L 73.128906 44.90625 L 81.316406 44.90625 C 84.003906 44.90625 85.320312 45.65625 85.320312 47.058594 C 85.320312 48.5625 83.765625 49.4375 81.347656 49.4375 L 73.128906 49.4375 Z M 95.210938 42.507812 L 90.878906 42.507812 L 97.660156 49.335938 L 97.660156 49.375 L 90.191406 56.730469 L 94.734375 56.730469 L 99.785156 51.449219 L 99.902344 51.449219 L 105.042969 56.730469 L 109.433594 56.730469 Z M 103.488281 48.117188 L 108.777344 42.507812 L 104.503906 42.507812 L 101.335938 46.023438 Z M 121.238281 42.304688 L 121.238281 44.90625 C 125.183594 44.90625 128.171875 46.449219 128.171875 49.617188 C 128.171875 52.789062 125.183594 54.355469 121.238281 54.355469 C 117.414062 54.355469 114.457031 52.789062 114.457031 49.617188 C 114.457031 49.617188 110.390625 49.617188 110.390625 49.617188 C 110.390625 54.3125 115.203125 56.933594 121.238281 56.933594 C 127.425781 56.933594 132.207031 54.515625 132.207031 49.617188 C 132.207031 44.945312 127.425781 42.304688 121.238281 42.304688 Z M 145.113281 42.507812 L 140.003906 42.507812 L 132.503906 56.730469 L 136.867188 56.730469 L 142.425781 45.453125 L 142.722656 45.453125 L 148.671875 56.730469 L 153.332031 56.730469 Z M 169.648438 56.730469 L 173.59375 56.730469 L 173.59375 42.507812 L 169.738281 42.507812 L 169.738281 52.300781 L 169.589844 52.300781 L 159.488281 42.507812 L 155.335938 42.507812 Z M 155.515625 56.730469 L 159.429688 56.730469 L 159.429688 49.761719 L 155.515625 45.960938 Z M 155.515625 56.730469 "/>
</g>
</svg>
