<svg data-v-0dd9719b="" version="1.0" xmlns="http://www.w3.org/2000/svg" height="100%" viewBox="0 0 340.000000 250.000000" preserveAspectRatio="xMidYMid meet" color-interpolation-filters="sRGB" style="margin: auto;">
        <rect data-v-0dd9719b="" x="0" y="0" width="100%" height="100%" fill="#ffffff" fill-opacity="1" class="background"/>
        <rect data-v-0dd9719b="" x="0" y="0" width="100%" height="100%" fill="url(#watermark)" fill-opacity="1" class="watermarklayer"/>
        <g data-v-0dd9719b="" fill="#2966CC" class="basesvg" transform="translate(42.98729675531388,105.75950050354004)">
            <g fill-rule="" class="tp-name">
                <g transform="scale(1.2700000000000005)">
                    <g>
                        <g stroke="#2966CC" stroke-width="1" stroke-linecap="round" stroke-linejoin="round" data-gra-attr="stroke" paint-order="stroke" fill-opacity="0" transform="translate(1.5, 1.5)">
                            <path d="M15.68-3.64L19.4-3.64 27.44-17.92 27.64-17.92 27.64 0 33.04 0 33.04-28 27.56-28 17.88-10.12 17.72-10.12 8.12-28 2.72-28ZM2.72 0L7.96 0 7.96-11 2.72-20.84ZM52.84-28L46-28 35.96 0 41.8 0 49.24-22.2 49.64-22.2 57.6 0 63.84 0ZM66.76 0L72.16 0 72.16-9.88 78.44-9.88 83.68 0 89.76 0 83.24-10.8C86.64-12.48 88.16-16.16 88.16-19.16 88.16-24.8 84.64-28 78.32-28L66.76-28 66.76-23.28 77.72-23.28C81.32-23.28 83.08-21.8 83.08-19.04 83.08-16.08 81-14.36 77.76-14.36L66.76-14.36ZM96.32-28L90.52-28 99.6-14.56 99.6-14.48 89.6 0 95.68 0 102.44-10.4 102.6-10.4 109.48 0 115.36 0ZM107.4-16.96L114.48-28 108.76-28 104.52-21.08ZM131.16-28.4L131.16-23.28C136.44-23.28 140.44-20.24 140.44-14 140.44-7.76 136.44-4.68 131.16-4.68 126.04-4.68 122.08-7.76 122.08-14 122.08-14 116.64-14 116.64-14 116.64-4.76 123.08 0.4 131.16 0.4 139.44 0.4 145.84-4.36 145.84-14 145.84-23.2 139.44-28.4 131.16-28.4ZM163.12-28L156.28-28 146.24 0 152.08 0 159.52-22.2 159.92-22.2 167.88 0 174.12 0ZM195.96 0L201.24 0 201.24-28 196.08-28 196.08-8.72 195.88-8.72 182.36-28 176.8-28ZM177.04 0L182.28 0 182.28-13.72 177.04-21.2Z" transform="translate(-2.7200000286102295, 28.399999618530273)"/>
                        </g>
                        <g>
                            <path d="M15.68-3.64L19.4-3.64 27.44-17.92 27.64-17.92 27.64 0 33.04 0 33.04-28 27.56-28 17.88-10.12 17.72-10.12 8.12-28 2.72-28ZM2.72 0L7.96 0 7.96-11 2.72-20.84ZM52.84-28L46-28 35.96 0 41.8 0 49.24-22.2 49.64-22.2 57.6 0 63.84 0ZM66.76 0L72.16 0 72.16-9.88 78.44-9.88 83.68 0 89.76 0 83.24-10.8C86.64-12.48 88.16-16.16 88.16-19.16 88.16-24.8 84.64-28 78.32-28L66.76-28 66.76-23.28 77.72-23.28C81.32-23.28 83.08-21.8 83.08-19.04 83.08-16.08 81-14.36 77.76-14.36L66.76-14.36ZM96.32-28L90.52-28 99.6-14.56 99.6-14.48 89.6 0 95.68 0 102.44-10.4 102.6-10.4 109.48 0 115.36 0ZM107.4-16.96L114.48-28 108.76-28 104.52-21.08ZM131.16-28.4L131.16-23.28C136.44-23.28 140.44-20.24 140.44-14 140.44-7.76 136.44-4.68 131.16-4.68 126.04-4.68 122.08-7.76 122.08-14 122.08-14 116.64-14 116.64-14 116.64-4.76 123.08 0.4 131.16 0.4 139.44 0.4 145.84-4.36 145.84-14 145.84-23.2 139.44-28.4 131.16-28.4ZM163.12-28L156.28-28 146.24 0 152.08 0 159.52-22.2 159.92-22.2 167.88 0 174.12 0ZM195.96 0L201.24 0 201.24-28 196.08-28 196.08-8.72 195.88-8.72 182.36-28 176.8-28ZM177.04 0L182.28 0 182.28-13.72 177.04-21.2Z" transform="translate(-2.7200000286102295, 28.399999618530273)"/>
                        </g>
                    </g>
                </g>
            </g> <!---->
        </g>
        <defs v-gra="od"/>
    </svg>